<?xml version="1.0" encoding="UTF-8"?>
<svg id="Layer_2" data-name="Layer 2" xmlns="http://www.w3.org/2000/svg" viewBox="0 0 235.99 230.35">
  <defs>
    <style>
      .cls-1 {
        fill: #f6b909;
      }
    </style>
  </defs>
  <g id="Layer_1-2" data-name="Layer 1">
    <g>
      <path class="cls-1" d="M210.89,206.63c-3.61-.22-10.33-1.15-19.47-4.63-4.38-1.68-9.33-3.95-14.75-7.01-1.94-1.1-3.95-2.29-6.01-3.6-26.46-16.8-54.45-16.8-54.45-16.8,0,0-27.99,0-54.46,16.8-2.07,1.31-4.07,2.51-6.01,3.6-5.43,3.06-10.36,5.33-14.74,7-9.15,3.49-15.86,4.42-19.47,4.64-1.7.1-3.03,1.48-3.03,3.18,0,.84.33,1.61.87,2.19.54.57,1.29.95,2.13.99,5.38.33,17.39.57,30.87-2.2,5.54-1.15,11.34-2.8,17.02-5.17.64-.27,1.28-.53,1.92-.78,22.47-8.85,42.75-7.99,44.74-7.88.12,0,.21,0,.32,0,1.99-.11,22.27-.96,44.74,7.88.64.25,1.28.51,1.92.78,5.68,2.37,11.48,4.02,17.02,5.17,13.48,2.77,25.49,2.52,30.87,2.2,1.69-.1,3-1.5,3-3.18,0-.85-.33-1.62-.88-2.19-.55-.58-1.3-.95-2.15-.99Z"/>
      <path class="cls-1" d="M81.99,225.1s15.3,5.16,35.15,5.26c9.73-.07,19.16-1.37,28.16-3.75,1.55-.45,3.09-.95,4.63-1.51,0,0-31.68-14.5-67.94,0Z"/>
      <circle class="cls-1" cx="117.9" cy="147.43" r="7.97"/>
      <circle class="cls-1" cx="117.9" cy="115.88" r="7.97"/>
      <circle class="cls-1" cx="117.9" cy="84.33" r="7.97"/>
      <circle class="cls-1" cx="117.9" cy="52.78" r="7.97"/>
      <circle class="cls-1" cx="157.1" cy="147.43" r="7.97"/>
      <circle class="cls-1" cx="157.1" cy="115.88" r="7.97"/>
      <circle class="cls-1" cx="157.1" cy="84.33" r="7.97"/>
      <circle class="cls-1" cx="196.3" cy="115.88" r="7.97"/>
      <circle class="cls-1" cx="196.3" cy="84.33" r="7.97"/>
      <circle class="cls-1" cx="157.1" cy="52.78" r="7.97"/>
      <circle class="cls-1" cx="78.71" cy="147.43" r="7.97"/>
      <circle class="cls-1" cx="78.71" cy="115.88" r="7.97"/>
      <circle class="cls-1" cx="78.71" cy="84.33" r="7.97"/>
      <circle class="cls-1" cx="39.51" cy="115.88" r="7.97"/>
      <circle class="cls-1" cx="39.51" cy="84.33" r="7.97"/>
      <circle class="cls-1" cx="78.71" cy="52.78" r="7.97"/>
      <path class="cls-1" d="M219.79,27.14S200.84,4.34,159.42,1.45c-13.79-.96-27.61-1.45-41.43-1.45s-27.63.49-41.42,1.45C35.15,4.34,16.2,27.14,16.2,27.14c0,0-17.98,20.87-16.06,65.18,1.93,44.32,13.17,71.61,17.34,80.28.63,1.31,1.75,3.37,3.27,6,1.72-.21,5.22-.85,10.26-2.77,2.01-.77,4.09-1.68,6.21-2.72-2.14-3.58-3.68-6.34-4.42-7.88-3.22-6.68-13.85-31.73-15.67-73.64-1.5-34.46,10.42-51.33,11.98-53.38l.1-.13c1.39-1.53,16.52-17.44,48.54-19.67,13.34-.93,26.88-1.41,40.24-1.41s26.91.48,40.25,1.41c30.41,2.11,45.59,16.58,48.22,19.33l.37.4c1.33,1.73,13.55,18.59,12.03,53.45-1.82,41.91-12.46,66.96-15.67,73.64-.83,1.72-2.67,4.98-5.21,9.19,1.17.52,2.33,1,3.47,1.44,6.14,2.34,10.02,2.75,11.12,2.82.83.05,1.66.13,2.48.25,1.61-2.78,2.8-4.97,3.45-6.33,4.18-8.67,15.42-35.96,17.34-80.28,1.93-44.31-16.05-65.18-16.05-65.18Z"/>
    </g>
  </g>
</svg>