<?xml version="1.0" encoding="UTF-8"?>
<svg id="Layer_2" data-name="Layer 2" xmlns="http://www.w3.org/2000/svg" viewBox="0 0 595.38 163.31">
  <defs>
    <style>
      .cls-1 {
        fill: #eae5e6;
      }

      .cls-2 {
        fill: #c4e52d;
      }
    </style>
  </defs>
  <g id="Layer_1-2" data-name="Layer 1">
    <g>
      <g>
        <path class="cls-2" d="M136.75,163.31H37.13c-20.47,0-37.13-16.66-37.13-37.13v-38.69c0-8.53,3.32-16.55,9.35-22.58L65.32,8.95c11.92-11.93,31.33-11.93,43.25,0l55.96,55.96c6.03,6.03,9.35,14.05,9.35,22.58v38.69c0,20.47-16.66,37.13-37.13,37.13ZM86.94,11.74c-5.03,0-9.76,1.96-13.31,5.51l-55.96,55.96c-3.81,3.81-5.91,8.88-5.91,14.27v38.69c0,13.99,11.38,25.38,25.37,25.38h99.62c13.99,0,25.38-11.38,25.38-25.38v-38.69c0-5.39-2.1-10.46-5.91-14.27l-55.96-55.96c-3.56-3.56-8.29-5.51-13.31-5.51Z"/>
        <g>
          <circle class="cls-2" cx="86.34" cy="89.42" r="5.48"/>
          <circle class="cls-2" cx="68.28" cy="89.42" r="5.48"/>
          <circle class="cls-2" cx="50.21" cy="89.42" r="5.48"/>
          <circle class="cls-2" cx="104.41" cy="89.42" r="5.48"/>
          <circle class="cls-2" cx="122.48" cy="89.42" r="5.48"/>
          <circle class="cls-2" cx="86.34" cy="69.56" r="5.48"/>
          <circle class="cls-2" cx="68.28" cy="69.56" r="5.48"/>
          <circle class="cls-2" cx="50.21" cy="69.56" r="5.48"/>
          <circle class="cls-2" cx="104.41" cy="69.56" r="5.48"/>
          <circle class="cls-2" cx="122.48" cy="69.56" r="5.48"/>
          <circle class="cls-2" cx="86.34" cy="109.28" r="5.48"/>
          <circle class="cls-2" cx="68.28" cy="109.28" r="5.48"/>
          <circle class="cls-2" cx="50.21" cy="109.28" r="5.48"/>
          <circle class="cls-2" cx="104.41" cy="109.28" r="5.48"/>
          <circle class="cls-2" cx="86.34" cy="129.14" r="5.48"/>
          <circle class="cls-2" cx="68.28" cy="129.14" r="5.48"/>
          <circle class="cls-2" cx="104.41" cy="129.14" r="5.48"/>
          <circle class="cls-2" cx="86.34" cy="49.7" r="5.48"/>
          <circle class="cls-2" cx="68.28" cy="49.7" r="5.48"/>
          <circle class="cls-2" cx="104.41" cy="49.7" r="5.48"/>
          <circle class="cls-2" cx="122.48" cy="109.28" r="5.48"/>
        </g>
      </g>
      <g>
        <g>
          <path class="cls-1" d="M291.48,74.98h-13.06l-4.05-12.05h-29.16l-4.14,12.05h-13.06l22.91-64.4h17.66l22.91,64.4ZM270.04,50.97l-9.38-27.05h-1.84l-9.38,27.05h20.61Z"/>
          <path class="cls-1" d="M294.61,41.31c1.47-3.62,3.76-6.58,6.85-8.88,3.1-2.3,6.98-3.45,11.64-3.45,4.05,0,7.18.75,9.38,2.25,2.21,1.5,4.05,3.33,5.52,5.47h1.84c-1.23-3.37-1.84-7.05-1.84-11.04v-15.09h14.72v64.4h-14.72v-.18c0-.98.19-2.04.55-3.17.37-1.13.8-2.22,1.29-3.27h-1.84c-.18.25-.37.49-.55.74-1.35,1.96-3.17,3.62-5.47,4.97-2.3,1.35-5.41,2.03-9.34,2.03-4.48,0-8.23-1.16-11.27-3.5-3.04-2.33-5.29-5.29-6.76-8.88-1.47-3.59-2.21-7.31-2.21-11.18s.74-7.6,2.21-11.22ZM310.25,60.03c2.09,1.81,4.54,2.71,7.36,2.71s5.26-.9,7.31-2.71c2.05-1.81,3.08-4.31,3.08-7.5s-1.03-5.69-3.08-7.5c-2.06-1.81-4.49-2.71-7.31-2.71s-5.27.91-7.36,2.71c-2.09,1.81-3.13,4.31-3.13,7.5s1.04,5.69,3.13,7.5Z"/>
          <path class="cls-1" d="M389.82,30.09v13.34c-4.29,0-7.85.94-10.67,2.81-2.82,1.87-4.88,4.25-6.16,7.13-1.29,2.88-1.93,5.89-1.93,9.02v12.6h-14.72v-29.71c0-.61-.16-1.07-.46-1.38-.31-.31-.77-.46-1.38-.46h-5.8v-13.34h15.27c1.53,0,2.78.37,3.73,1.1.95.74,1.43,1.81,1.43,3.22,0,2.76-.58,7.12-1.75,13.06h1.84c.92-3.43,2.33-6.46,4.23-9.06,1.9-2.61,4.25-4.65,7.04-6.12,2.79-1.47,5.9-2.21,9.34-2.21Z"/>
          <path class="cls-1" d="M416.31,34.23v40.75h-14.72v-29.25c0-.68-.22-1.23-.64-1.66-.43-.43-.98-.64-1.66-.64h-4.42v-13.34h17.3c1.16,0,2.14.4,2.94,1.2s1.2,1.78,1.2,2.94ZM408.5,20.8c1.84,0,3.45-.69,4.83-2.07,1.38-1.38,2.07-2.99,2.07-4.83s-.69-3.53-2.07-4.88c-1.38-1.35-2.99-2.02-4.83-2.02-1.97,0-3.65.68-5.06,2.02-1.41,1.35-2.11,2.98-2.11,4.88s.7,3.53,2.11,4.88c1.41,1.35,3.1,2.02,5.06,2.02Z"/>
          <path class="cls-1" d="M477.12,75.08h-10.49c-2.09,0-3.63-.58-4.65-1.75-1.01-1.16-1.52-2.7-1.52-4.6,0-1.29.18-2.5.55-3.63.37-1.13.8-2.1,1.29-2.9h-1.84c-.61,1.84-1.56,3.68-2.85,5.52-1.29,1.84-2.82,3.34-4.6,4.51-2.58,1.66-5.32,2.78-8.23,3.36-2.91.58-5.84.69-8.79.32-2.15-.25-4.17-.92-6.07-2.03-1.9-1.1-3.42-2.61-4.55-4.51-1.14-1.9-1.7-4.05-1.7-6.44,0-3.68,1-6.53,2.99-8.56,1.99-2.02,4.61-3.4,7.86-4.14,1.59-.37,3.22-.66,4.88-.87,1.66-.21,3.19-.38,4.6-.51,1.78-.12,3.5-.31,5.15-.55l1.2-.18c2.09-.31,3.56-.69,4.42-1.15.86-.46,1.07-1.36.64-2.71-.25-.8-.77-1.44-1.56-1.93-.8-.49-1.75-.84-2.85-1.06-1.1-.22-2.36-.32-3.77-.32-2.02,0-3.71.26-5.06.78-1.35.52-2.33,1.18-2.94,1.98-.61.8-.92,1.66-.92,2.58h-14.26c0-2.88.81-5.64,2.44-8.28,1.62-2.64,4.19-4.8,7.68-6.49,3.49-1.69,7.94-2.53,13.34-2.53s9.75.84,13.25,2.53c3.49,1.69,6.04,3.83,7.63,6.44,1.59,2.61,2.39,5.35,2.39,8.23v13.25c0,.61.23,1.15.69,1.61.46.46,1,.69,1.61.69h4.05v13.34ZM453.48,54.1c-1.29.19-2.85.4-4.69.65-1.72.18-3.44.4-5.15.64-1.47.18-2.84.74-4.09,1.65-1.26.92-1.89,2.03-1.89,3.31s.51,2.33,1.52,3.13c1.01.8,2.26,1.32,3.73,1.56,1.53.12,2.85.12,3.96,0,1.1-.12,2.36-.52,3.77-1.2,1.53-.74,2.77-1.69,3.73-2.85.95-1.16,1.49-2.27,1.61-3.31.06-.8.09-1.56.09-2.3v-1.84c-.43.18-1.29.37-2.58.55Z"/>
          <path class="cls-1" d="M485.5,59.53v-16.1h-8.83v-13.34h8.83V10.59h14.72v19.5h14.63v13.34h-14.63v15.91c0,.61.23,1.15.69,1.61.46.46,1,.69,1.61.69h12.33v13.34h-13.98c-3.56,0-6.49-.75-8.79-2.25-2.3-1.5-3.97-3.43-5.01-5.8-1.04-2.36-1.56-4.83-1.56-7.41Z"/>
          <path class="cls-1" d="M541.33,34.23v40.75h-14.72v-29.25c0-.68-.22-1.23-.64-1.66-.43-.43-.98-.64-1.66-.64h-4.42v-13.34h17.3c1.16,0,2.14.4,2.94,1.2s1.2,1.78,1.2,2.94ZM533.52,20.8c1.84,0,3.45-.69,4.83-2.07,1.38-1.38,2.07-2.99,2.07-4.83s-.69-3.53-2.07-4.88c-1.38-1.35-2.99-2.02-4.83-2.02-1.97,0-3.65.68-5.06,2.02-1.41,1.35-2.11,2.98-2.11,4.88s.7,3.53,2.11,4.88c1.41,1.35,3.1,2.02,5.06,2.02Z"/>
          <path class="cls-1" d="M578.5,58.98h15.64c-1.1,4.78-3.51,8.83-7.22,12.14-3.71,3.31-8.82,4.97-15.32,4.97-5.34,0-9.75-1.15-13.25-3.45-3.49-2.3-6.06-5.24-7.68-8.83-1.63-3.59-2.44-7.34-2.44-11.27s.81-7.68,2.44-11.27c1.62-3.59,4.19-6.53,7.68-8.83,3.5-2.3,7.91-3.45,13.25-3.45,4.42,0,8.2.81,11.36,2.44,3.16,1.62,5.64,3.74,7.45,6.35,1.81,2.61,3.05,5.41,3.72,8.42h-15.55c-.55-.98-1.4-1.87-2.53-2.67-1.14-.8-2.62-1.2-4.46-1.2-1.96,0-3.59.51-4.88,1.52s-2.24,2.29-2.85,3.82-.92,3.16-.92,4.88.31,3.34.92,4.88,1.56,2.81,2.85,3.82c1.29,1.01,2.91,1.52,4.88,1.52,1.84,0,3.31-.38,4.42-1.15,1.1-.77,1.93-1.64,2.49-2.62Z"/>
        </g>
        <g>
          <path class="cls-1" d="M264.68,101.96c2.49,1.13,4.52,2.83,6.09,5.11,1.57,2.28,2.36,5.04,2.36,8.29s-.8,6.02-2.4,8.33c-1.6,2.31-3.64,4.02-6.13,5.15-2.49,1.13-5.12,1.69-7.9,1.69h-17.05v24.75h-6.44v-55.01h23.49c2.83,0,5.49.56,7.98,1.69ZM261.3,123.61c1.6-.73,2.89-1.79,3.89-3.18,1-1.39,1.49-3.08,1.49-5.07s-.5-3.68-1.49-5.07c-1-1.39-2.29-2.44-3.89-3.14-1.6-.71-3.34-1.06-5.23-1.06h-16.42v18.62h16.42c1.89,0,3.63-.36,5.23-1.1Z"/>
          <path class="cls-1" d="M316.5,155.28h-4.87c-1.36,0-2.46-.42-3.3-1.26-.84-.84-1.26-1.94-1.26-3.3,0-1.1.1-2.21.31-3.34s.47-2.14.79-3.03h-1.1c-.63,1.73-1.53,3.42-2.71,5.07-1.18,1.65-2.53,2.97-4.05,3.97-1.83,1.21-3.83,2.02-5.97,2.44-2.15.42-4.43.5-6.84.24-1.78-.21-3.44-.8-4.99-1.77-1.55-.97-2.79-2.26-3.73-3.89-.94-1.62-1.41-3.43-1.41-5.42,0-3.14.86-5.58,2.59-7.31,1.73-1.73,3.9-2.91,6.52-3.54,1.21-.26,2.52-.51,3.93-.75,1.41-.23,2.75-.43,4.01-.59,2.46-.37,4.22-.66,5.26-.86l1.02-.16c1.62-.42,2.8-.9,3.54-1.45s.97-1.38.71-2.47c-.26-1.15-.84-2.23-1.73-3.22-.89-.99-2.06-1.79-3.5-2.4-1.44-.6-3.08-.9-4.91-.9-2.1,0-3.98.41-5.66,1.22-1.68.81-2.96,1.9-3.85,3.26-.89,1.36-1.34,2.86-1.34,4.48h-6.29c0-2.51.68-4.86,2.04-7.03,1.36-2.17,3.35-3.93,5.97-5.26,2.62-1.34,5.68-2,9.19-2s6.56.67,9.15,2c2.59,1.33,4.57,3.16,5.93,5.46,1.36,2.31,2.04,4.85,2.04,7.62v16.89c0,.42.14.77.43,1.06.29.29.67.43,1.14.43h2.91v5.82ZM302.6,134.53c-1.47.42-3.41.89-5.82,1.41-1.78.31-3.8.66-6.05,1.02-1.99.31-3.68,1.09-5.07,2.32-1.39,1.23-2.08,2.84-2.08,4.83,0,1.73.62,3.24,1.85,4.52,1.23,1.29,2.71,2.06,4.44,2.32,1.83.26,3.4.29,4.71.08,1.31-.21,2.83-.81,4.56-1.81,1.73-.94,3.09-2.19,4.09-3.73.99-1.54,1.68-3.18,2.04-4.91.21-1.26.31-2.54.31-3.85v-3.46c-.53.42-1.52.84-2.99,1.26Z"/>
          <path class="cls-1" d="M321.93,126.28c1.21-3.04,3.06-5.51,5.58-7.43,2.51-1.91,5.63-2.87,9.35-2.87s6.53.86,8.76,2.59c2.23,1.73,3.94,3.98,5.15,6.76h1.1c-.73-2.88-1.1-5.94-1.1-9.19v-15.87h6.44v55.01h-6.44v-.79c0-1.31.1-2.63.31-3.97s.47-2.53.79-3.57h-1.1c-.1.21-.29.6-.55,1.18-1.21,2.41-2.9,4.36-5.07,5.85-2.17,1.49-4.99,2.24-8.45,2.24-3.72,0-6.81-.96-9.27-2.87-2.46-1.91-4.3-4.39-5.5-7.42-1.21-3.04-1.81-6.31-1.81-9.82s.6-6.78,1.81-9.82ZM329.74,146.36c2.12,2.7,5.09,4.05,8.92,4.05s6.8-1.35,8.92-4.05c2.12-2.7,3.18-6.12,3.18-10.25s-1.07-7.56-3.22-10.25c-2.15-2.7-5.11-4.05-8.88-4.05s-6.73,1.34-8.88,4.01-3.22,6.1-3.22,10.29,1.06,7.56,3.18,10.25Z"/>
          <path class="cls-1" d="M372.18,143.77c.81,2.02,2.12,3.71,3.93,5.07,1.81,1.36,4.13,2.04,6.96,2.04,2.99,0,5.41-.73,7.27-2.2,1.86-1.47,3.23-3.56,4.13-6.28h6.29c-.94,3.82-2.83,7.08-5.66,9.78-2.83,2.7-6.81,4.05-11.94,4.05-4.19,0-7.66-.98-10.41-2.95-2.75-1.96-4.77-4.49-6.05-7.58-1.28-3.09-1.93-6.31-1.93-9.67s.64-6.55,1.93-9.59,3.3-5.54,6.05-7.51c2.75-1.96,6.22-2.95,10.41-2.95s7.61.97,10.41,2.91c2.8,1.94,4.86,4.53,6.17,7.78,1.31,3.25,1.89,6.84,1.73,10.77h-30.65c.1,2.2.56,4.31,1.38,6.32ZM376.7,123.06c-1.73,1.15-3.06,2.64-4.01,4.48s-1.52,3.77-1.73,5.81h24.28c-.16-1.88-.71-3.74-1.65-5.58-.94-1.83-2.31-3.37-4.09-4.6-1.78-1.23-3.93-1.85-6.44-1.85s-4.64.58-6.37,1.73Z"/>
          <path class="cls-1" d="M415.67,100.27v55.01h-6.44v-55.01h6.44Z"/>
        </g>
        <g>
          <path class="cls-1" d="M489.06,139.48h4.64l-.08.24c-1,2.93-2.45,5.63-4.36,8.09-1.91,2.46-4.44,4.48-7.58,6.05-3.14,1.57-6.86,2.36-11.16,2.36-5.71,0-10.44-1.4-14.18-4.2s-6.5-6.38-8.25-10.73c-1.76-4.35-2.63-8.88-2.63-13.59s.88-9.23,2.63-13.56c1.75-4.32,4.52-7.87,8.29-10.65,3.77-2.78,8.49-4.17,14.14-4.17,4.35,0,8.09.8,11.24,2.4s5.67,3.64,7.58,6.13,3.37,5.23,4.36,8.21h-4.64c-1.47-3.77-3.73-6.84-6.8-9.19-3.07-2.36-7.01-3.54-11.83-3.54s-8.55,1.19-11.67,3.57c-3.12,2.38-5.38,5.42-6.8,9.11-1.41,3.69-2.12,7.56-2.12,11.59s.71,8,2.12,11.75c1.41,3.75,3.68,6.82,6.8,9.23,3.12,2.41,7.01,3.62,11.67,3.62s8.58-1.14,11.59-3.42c3.01-2.28,5.28-5.23,6.8-8.84l.24-.47Z"/>
          <path class="cls-1" d="M506.27,100.27v55.01h-4.4v-55.01h4.4Z"/>
          <path class="cls-1" d="M516.25,139.01v-22.08h4.4v21.29c0,3.98.68,7.18,2.04,9.59,1.36,2.41,3.64,3.93,6.84,4.56,2.57.58,4.92.37,7.07-.63,2.15-1,3.9-2.59,5.26-4.79,1.36-2.2,2.3-4.82,2.83-7.86.42-3.04.63-6.15.63-9.35v-12.81h4.4v38.35h-4.4v-3.69c0-1.36.12-2.83.35-4.4.24-1.57.51-3.01.83-4.32h-.86c-.73,3.04-1.97,5.67-3.69,7.9-1.73,2.23-3.89,3.81-6.48,4.75-2.59.94-5.41,1.05-8.45.31-2.41-.58-4.43-1.7-6.05-3.38-1.62-1.68-2.82-3.67-3.57-5.97-.76-2.31-1.14-4.79-1.14-7.47Z"/>
          <path class="cls-1" d="M587.95,118.82c2.49,1.89,4.35,4.35,5.58,7.39,1.23,3.04,1.85,6.34,1.85,9.9s-.6,6.86-1.81,9.9-3.04,5.5-5.5,7.39c-2.46,1.89-5.53,2.83-9.19,2.83s-6.84-.93-9.19-2.79c-2.36-1.86-4.14-4.33-5.34-7.42h-.86c.63,2.73.94,5.47.94,8.25v1.02h-4.4v-55.01h4.4v16.9c0,3.14-.31,6.16-.94,9.04h.86c.1-.31.31-.79.63-1.41,1.31-2.67,3.1-4.8,5.38-6.4,2.28-1.6,5.09-2.4,8.45-2.4,3.61,0,6.67.94,9.15,2.83ZM587.56,147.66c2.28-3.04,3.42-6.89,3.42-11.55s-1.14-8.45-3.42-11.51c-2.28-3.06-5.57-4.6-9.86-4.6-2.83,0-5.24.72-7.23,2.16-1.99,1.44-3.5,3.38-4.52,5.82-1.02,2.44-1.53,5.15-1.53,8.13,0,4.61,1.14,8.45,3.42,11.51,2.28,3.06,5.57,4.6,9.86,4.6s7.58-1.52,9.86-4.56Z"/>
        </g>
      </g>
    </g>
  </g>
</svg>