<?xml version="1.0" encoding="UTF-8"?>
<svg id="Layer_2" data-name="Layer 2" xmlns="http://www.w3.org/2000/svg" viewBox="0 0 286.44 116.42">
  <defs>
    <style>
      .cls-1 {
        fill: #013b3b;
      }
    </style>
  </defs>
  <g id="Layer_1-2" data-name="Layer 1">
    <g>
      <g>
        <path class="cls-1" d="M49.49,53.01h-10.18l-3.16-9.4H13.41l-3.23,9.4H0L17.86,2.8h13.77l17.86,50.21ZM32.78,34.29l-7.32-21.09h-1.43l-7.32,21.09h16.07Z"/>
        <path class="cls-1" d="M51.93,26.75c1.15-2.82,2.93-5.13,5.34-6.92,2.41-1.79,5.44-2.69,9.07-2.69,3.16,0,5.6.59,7.32,1.76,1.72,1.17,3.16,2.59,4.3,4.27h1.43c-.96-2.63-1.43-5.5-1.43-8.61V2.8h11.48v50.21h-11.48v-.14c0-.76.14-1.59.43-2.47.29-.88.62-1.73,1-2.55h-1.43c-.14.19-.29.38-.43.57-1.05,1.53-2.47,2.82-4.27,3.87-1.79,1.05-4.22,1.58-7.28,1.58-3.49,0-6.42-.91-8.79-2.73-2.37-1.82-4.12-4.12-5.27-6.92-1.15-2.8-1.72-5.7-1.72-8.72s.57-5.93,1.72-8.75ZM64.12,41.35c1.63,1.41,3.54,2.12,5.74,2.12s4.1-.7,5.7-2.12c1.6-1.41,2.4-3.36,2.4-5.85s-.8-4.43-2.4-5.85c-1.6-1.41-3.5-2.12-5.7-2.12s-4.11.71-5.74,2.12c-1.63,1.41-2.44,3.36-2.44,5.85s.81,4.44,2.44,5.85Z"/>
        <path class="cls-1" d="M126.17,18v10.4c-3.35,0-6.12.73-8.32,2.19-2.2,1.46-3.8,3.31-4.81,5.56-1,2.25-1.51,4.59-1.51,7.03v9.83h-11.48v-23.17c0-.48-.12-.84-.36-1.08-.24-.24-.6-.36-1.08-.36h-4.52v-10.4h11.91c1.2,0,2.16.29,2.91.86.74.57,1.11,1.41,1.11,2.51,0,2.15-.46,5.55-1.36,10.19h1.43c.72-2.68,1.82-5.03,3.3-7.07,1.48-2.03,3.31-3.62,5.49-4.77,2.18-1.15,4.6-1.72,7.28-1.72Z"/>
        <path class="cls-1" d="M146.82,21.23v31.78h-11.48v-22.81c0-.53-.17-.96-.5-1.29-.34-.33-.76-.5-1.29-.5h-3.44v-10.4h13.49c.91,0,1.67.31,2.29.93s.93,1.39.93,2.3ZM140.73,10.76c1.43,0,2.69-.54,3.77-1.61,1.08-1.08,1.61-2.33,1.61-3.77s-.54-2.75-1.61-3.8c-1.08-1.05-2.33-1.58-3.77-1.58-1.53,0-2.85.53-3.95,1.58-1.1,1.05-1.65,2.32-1.65,3.8s.55,2.75,1.65,3.8c1.1,1.05,2.41,1.58,3.95,1.58Z"/>
        <path class="cls-1" d="M194.24,53.08h-8.18c-1.63,0-2.83-.45-3.62-1.36-.79-.91-1.18-2.1-1.18-3.59,0-1,.14-1.95.43-2.83.29-.88.62-1.64,1-2.26h-1.43c-.48,1.43-1.22,2.87-2.22,4.3-1,1.43-2.2,2.61-3.59,3.51-2.01,1.29-4.15,2.16-6.42,2.62-2.27.46-4.55.54-6.85.25-1.68-.19-3.25-.72-4.73-1.58-1.48-.86-2.67-2.03-3.55-3.51-.89-1.48-1.33-3.16-1.33-5.02,0-2.87.78-5.09,2.33-6.67,1.55-1.58,3.6-2.65,6.13-3.23,1.24-.29,2.51-.51,3.8-.68,1.29-.17,2.49-.3,3.59-.39,1.39-.09,2.73-.24,4.02-.43l.93-.14c1.63-.24,2.77-.54,3.44-.9.67-.36.84-1.06.5-2.12-.19-.62-.6-1.12-1.22-1.51-.62-.38-1.36-.66-2.22-.82-.86-.17-1.84-.25-2.94-.25-1.58,0-2.89.2-3.94.61-1.05.41-1.82.92-2.3,1.54-.48.62-.72,1.29-.72,2.01h-11.12c0-2.25.63-4.4,1.9-6.46s3.26-3.74,5.99-5.06c2.72-1.31,6.19-1.97,10.4-1.97s7.6.66,10.33,1.97c2.72,1.31,4.71,2.99,5.95,5.02,1.24,2.03,1.87,4.17,1.87,6.42v10.33c0,.48.18.9.54,1.26.36.36.78.54,1.26.54h3.16v10.4ZM175.8,36.72c-1.01.14-2.22.31-3.66.5-1.34.14-2.68.31-4.02.5-1.15.14-2.21.57-3.19,1.29-.98.72-1.47,1.58-1.47,2.58s.4,1.82,1.18,2.44c.79.62,1.76,1.03,2.91,1.22,1.2.1,2.22.1,3.08,0,.86-.1,1.84-.41,2.94-.93,1.2-.57,2.16-1.31,2.91-2.22.74-.91,1.16-1.77,1.26-2.58.05-.62.07-1.22.07-1.79v-1.43c-.34.14-1,.29-2.01.43Z"/>
        <path class="cls-1" d="M200.76,40.96v-12.55h-6.89v-10.4h6.89V2.8h11.48v15.21h11.41v10.4h-11.41v12.41c0,.48.18.9.54,1.26.36.36.78.54,1.26.54h9.61v10.4h-10.9c-2.77,0-5.06-.59-6.85-1.76-1.79-1.17-3.1-2.68-3.91-4.52-.81-1.84-1.22-3.77-1.22-5.77Z"/>
        <path class="cls-1" d="M244.3,21.23v31.78h-11.48v-22.81c0-.53-.17-.96-.5-1.29-.34-.33-.76-.5-1.29-.5h-3.44v-10.4h13.49c.91,0,1.67.31,2.29.93s.93,1.39.93,2.3ZM238.21,10.76c1.43,0,2.69-.54,3.77-1.61,1.08-1.08,1.61-2.33,1.61-3.77s-.54-2.75-1.61-3.8c-1.08-1.05-2.33-1.58-3.77-1.58-1.53,0-2.85.53-3.95,1.58-1.1,1.05-1.65,2.32-1.65,3.8s.55,2.75,1.65,3.8c1.1,1.05,2.41,1.58,3.95,1.58Z"/>
        <path class="cls-1" d="M273.28,40.53h12.19c-.86,3.73-2.74,6.89-5.63,9.47-2.89,2.58-6.87,3.87-11.94,3.87-4.16,0-7.6-.9-10.33-2.69-2.72-1.79-4.72-4.09-5.99-6.89-1.27-2.8-1.9-5.73-1.9-8.79s.63-5.99,1.9-8.79c1.27-2.8,3.26-5.09,5.99-6.89,2.73-1.79,6.17-2.69,10.33-2.69,3.44,0,6.39.63,8.86,1.9s4.4,2.92,5.81,4.95c1.41,2.03,2.38,4.22,2.9,6.56h-12.12c-.43-.76-1.09-1.46-1.97-2.08-.89-.62-2.04-.93-3.48-.93-1.53,0-2.8.39-3.8,1.18s-1.75,1.78-2.22,2.98-.72,2.46-.72,3.8.24,2.61.72,3.8,1.22,2.19,2.22,2.98c1,.79,2.27,1.18,3.8,1.18,1.43,0,2.58-.3,3.44-.9.86-.6,1.51-1.28,1.94-2.04Z"/>
      </g>
      <g>
        <path class="cls-1" d="M28.6,74.04c1.94.88,3.52,2.21,4.75,3.98,1.23,1.78,1.84,3.93,1.84,6.46s-.62,4.7-1.87,6.49c-1.25,1.8-2.84,3.14-4.78,4.01-1.94.88-3.99,1.32-6.16,1.32h-13.3v19.3h-5.02v-42.89h18.32c2.21,0,4.28.44,6.22,1.32ZM25.96,90.92c1.24-.57,2.26-1.4,3.03-2.48.78-1.08,1.16-2.4,1.16-3.95s-.39-2.87-1.16-3.95c-.78-1.08-1.79-1.9-3.03-2.45-1.25-.55-2.6-.83-4.07-.83h-12.81v14.52h12.81c1.47,0,2.83-.28,4.07-.86Z"/>
        <path class="cls-1" d="M69,115.61h-3.8c-1.06,0-1.92-.33-2.57-.98-.65-.65-.98-1.51-.98-2.57,0-.86.08-1.72.25-2.6s.37-1.67.61-2.36h-.86c-.49,1.35-1.19,2.67-2.11,3.95-.92,1.29-1.97,2.32-3.16,3.09-1.43.94-2.98,1.57-4.66,1.9-1.68.33-3.45.39-5.33.18-1.39-.16-2.69-.62-3.89-1.38-1.21-.75-2.17-1.77-2.91-3.03-.74-1.27-1.1-2.67-1.1-4.23,0-2.45.67-4.35,2.02-5.7,1.35-1.35,3.04-2.27,5.08-2.76.94-.2,1.96-.4,3.06-.58,1.1-.18,2.14-.34,3.12-.46,1.92-.29,3.29-.51,4.11-.67l.8-.12c1.27-.33,2.18-.7,2.76-1.13s.75-1.07.55-1.93c-.21-.9-.65-1.74-1.35-2.51-.69-.77-1.6-1.4-2.73-1.87-1.12-.47-2.4-.7-3.83-.7-1.63,0-3.11.32-4.41.95-1.31.63-2.31,1.48-3,2.54-.7,1.06-1.04,2.23-1.04,3.49h-4.9c0-1.96.53-3.79,1.59-5.48,1.06-1.7,2.61-3.06,4.66-4.11,2.04-1.04,4.43-1.56,7.17-1.56s5.11.52,7.14,1.56c2.02,1.04,3.56,2.46,4.63,4.26,1.06,1.8,1.59,3.78,1.59,5.94v13.17c0,.33.11.6.34.83.22.22.52.34.89.34h2.27v4.53ZM58.16,99.44c-1.14.33-2.66.69-4.53,1.1-1.39.25-2.96.51-4.72.8-1.55.25-2.87.85-3.95,1.81-1.08.96-1.62,2.22-1.62,3.77,0,1.35.48,2.52,1.44,3.52.96,1,2.11,1.6,3.46,1.81,1.43.2,2.65.22,3.68.06,1.02-.16,2.21-.63,3.55-1.41,1.35-.74,2.41-1.7,3.19-2.91.77-1.2,1.31-2.48,1.59-3.83.16-.98.25-1.98.25-3v-2.7c-.41.33-1.19.66-2.33.98Z"/>
        <path class="cls-1" d="M73.23,93c.94-2.37,2.39-4.3,4.35-5.79,1.96-1.49,4.39-2.24,7.29-2.24s5.09.67,6.83,2.02c1.74,1.35,3.07,3.11,4.01,5.27h.86c-.57-2.25-.86-4.63-.86-7.17v-12.38h5.02v42.89h-5.02v-.61c0-1.02.08-2.05.25-3.09s.37-1.97.61-2.79h-.86c-.08.16-.22.47-.43.92-.94,1.88-2.26,3.4-3.95,4.56-1.69,1.16-3.89,1.75-6.59,1.75-2.9,0-5.31-.75-7.23-2.24-1.92-1.49-3.35-3.42-4.29-5.79-.94-2.37-1.41-4.92-1.41-7.66s.47-5.29,1.41-7.66ZM79.33,108.66c1.65,2.1,3.97,3.16,6.96,3.16s5.3-1.05,6.95-3.16c1.65-2.1,2.48-4.77,2.48-8s-.84-5.89-2.51-8c-1.68-2.1-3.98-3.16-6.92-3.16s-5.25,1.04-6.92,3.12-2.51,4.76-2.51,8.03.83,5.89,2.48,8Z"/>
        <path class="cls-1" d="M112.41,106.64c.63,1.57,1.65,2.89,3.06,3.95,1.41,1.06,3.22,1.59,5.42,1.59,2.33,0,4.22-.57,5.67-1.72,1.45-1.14,2.52-2.78,3.22-4.9h4.9c-.74,2.98-2.21,5.52-4.41,7.63-2.21,2.1-5.31,3.16-9.31,3.16-3.27,0-5.97-.77-8.12-2.3-2.15-1.53-3.72-3.5-4.72-5.91-1-2.41-1.5-4.92-1.5-7.54s.5-5.11,1.5-7.47,2.57-4.32,4.72-5.85c2.14-1.53,4.85-2.3,8.12-2.3s5.93.76,8.12,2.27c2.18,1.51,3.79,3.53,4.81,6.07,1.02,2.53,1.47,5.33,1.35,8.39h-23.89c.08,1.71.44,3.36,1.07,4.93ZM115.94,90.49c-1.35.9-2.39,2.06-3.12,3.49s-1.18,2.94-1.35,4.53h18.93c-.12-1.47-.55-2.92-1.29-4.35-.74-1.43-1.8-2.62-3.19-3.58-1.39-.96-3.06-1.44-5.02-1.44s-3.61.45-4.96,1.35Z"/>
        <path class="cls-1" d="M146.32,72.72v42.89h-5.02v-42.89h5.02Z"/>
      </g>
      <g>
        <path class="cls-1" d="M203.55,103.3h3.61l-.06.18c-.78,2.29-1.91,4.39-3.4,6.31-1.49,1.92-3.46,3.49-5.91,4.72-2.45,1.23-5.35,1.84-8.7,1.84-4.45,0-8.14-1.09-11.06-3.28s-5.07-4.97-6.43-8.36c-1.37-3.39-2.05-6.92-2.05-10.6s.68-7.2,2.05-10.57c1.37-3.37,3.52-6.14,6.46-8.3,2.94-2.17,6.62-3.25,11.03-3.25,3.39,0,6.31.62,8.76,1.87s4.42,2.84,5.91,4.78,2.62,4.07,3.4,6.4h-3.61c-1.14-2.94-2.91-5.33-5.3-7.17-2.39-1.84-5.46-2.76-9.22-2.76s-6.67.93-9.1,2.79c-2.43,1.86-4.2,4.23-5.3,7.11-1.1,2.88-1.65,5.89-1.65,9.04s.55,6.24,1.65,9.16c1.1,2.92,2.87,5.32,5.3,7.2,2.43,1.88,5.46,2.82,9.1,2.82s6.69-.89,9.04-2.67c2.35-1.78,4.11-4.07,5.3-6.89l.18-.37Z"/>
        <path class="cls-1" d="M216.96,72.72v42.89h-3.43v-42.89h3.43Z"/>
        <path class="cls-1" d="M224.74,102.93v-17.22h3.43v16.6c0,3.11.53,5.6,1.59,7.48,1.06,1.88,2.84,3.06,5.33,3.55,2,.45,3.84.29,5.51-.49,1.67-.78,3.04-2.02,4.11-3.74,1.06-1.72,1.8-3.76,2.21-6.13.33-2.37.49-4.8.49-7.29v-9.99h3.43v29.9h-3.43v-2.88c0-1.06.09-2.21.28-3.43.18-1.23.4-2.35.64-3.37h-.67c-.57,2.37-1.53,4.42-2.88,6.16-1.35,1.74-3.03,2.97-5.06,3.71-2.02.74-4.22.82-6.59.25-1.88-.45-3.45-1.33-4.72-2.63-1.27-1.31-2.2-2.86-2.79-4.66-.59-1.8-.89-3.74-.89-5.82Z"/>
        <path class="cls-1" d="M280.65,87.18c1.94,1.47,3.39,3.39,4.35,5.76.96,2.37,1.44,4.94,1.44,7.72s-.47,5.35-1.41,7.72-2.37,4.29-4.29,5.76c-1.92,1.47-4.31,2.21-7.17,2.21s-5.33-.73-7.17-2.18c-1.84-1.45-3.23-3.38-4.17-5.79h-.67c.49,2.12.74,4.27.74,6.43v.8h-3.43v-42.89h3.43v13.17c0,2.45-.25,4.8-.74,7.05h.67c.08-.25.25-.61.49-1.1,1.02-2.08,2.42-3.75,4.2-4.99,1.78-1.25,3.97-1.87,6.59-1.87,2.82,0,5.2.74,7.14,2.21ZM280.34,109.67c1.78-2.37,2.67-5.37,2.67-9.01s-.89-6.59-2.67-8.98c-1.78-2.39-4.34-3.58-7.69-3.58-2.21,0-4.08.56-5.64,1.69-1.55,1.12-2.73,2.63-3.52,4.53-.8,1.9-1.2,4.01-1.2,6.34,0,3.59.89,6.59,2.66,8.98,1.78,2.39,4.34,3.58,7.69,3.58s5.91-1.18,7.69-3.55Z"/>
      </g>
    </g>
  </g>
</svg>