<?xml version="1.0" encoding="UTF-8"?>
<svg id="Layer_2" data-name="Layer 2" xmlns="http://www.w3.org/2000/svg" viewBox="0 0 840.06 230.35">
  <defs>
    <style>
      .cls-1 {
        fill: #eae5e6;
      }

      .cls-2 {
        fill: #f6b909;
      }
    </style>
  </defs>
  <g id="Layer_1-2" data-name="Layer 1">
    <g>
      <g>
        <g>
          <path class="cls-1" d="M374.12,104.95h-20.03l-6.21-18.48h-44.71l-6.35,18.48h-20.03L311.91,6.22h27.08l35.12,98.73ZM341.25,68.13l-14.39-41.47h-2.82l-14.39,41.47h31.59Z"/>
          <path class="cls-1" d="M378.91,53.32c2.26-5.55,5.76-10.08,10.51-13.61,4.75-3.53,10.7-5.29,17.84-5.29,6.2,0,11,1.15,14.39,3.46,3.39,2.31,6.21,5.1,8.46,8.39h2.82c-1.88-5.17-2.82-10.81-2.82-16.93V6.22h22.57v98.73h-22.57v-.28c0-1.5.28-3.13.85-4.87.57-1.74,1.22-3.41,1.97-5.01h-2.82c-.28.38-.56.75-.85,1.13-2.07,3.01-4.86,5.55-8.39,7.62-3.53,2.07-8.3,3.1-14.32,3.1-6.86,0-12.62-1.78-17.28-5.36-4.65-3.57-8.11-8.11-10.37-13.61-2.26-5.5-3.38-11.21-3.38-17.14s1.13-11.66,3.38-17.21ZM402.89,82.03c3.2,2.77,6.96,4.16,11.28,4.16s8.06-1.39,11.21-4.16c3.15-2.77,4.72-6.61,4.72-11.5s-1.58-8.72-4.72-11.5c-3.15-2.77-6.89-4.16-11.21-4.16s-8.09,1.39-11.28,4.16c-3.2,2.77-4.8,6.61-4.8,11.5s1.6,8.72,4.8,11.5Z"/>
          <path class="cls-1" d="M524.89,36.12v20.45c-6.58,0-12.04,1.43-16.36,4.3-4.32,2.87-7.48,6.51-9.45,10.93-1.97,4.42-2.96,9.03-2.96,13.82v19.32h-22.57v-45.56c0-.94-.24-1.64-.71-2.11-.47-.47-1.18-.71-2.11-.71h-8.89v-20.45h23.41c2.35,0,4.26.56,5.71,1.69,1.46,1.13,2.19,2.77,2.19,4.94,0,4.23-.9,10.91-2.68,20.03h2.82c1.41-5.27,3.57-9.9,6.49-13.89,2.91-3.99,6.51-7.12,10.79-9.38,4.28-2.26,9.05-3.38,14.32-3.38Z"/>
          <path class="cls-1" d="M565.51,42.46v62.48h-22.57v-44.85c0-1.04-.33-1.88-.99-2.54-.66-.66-1.5-.99-2.54-.99h-6.77v-20.45h26.52c1.78,0,3.29.61,4.51,1.83s1.83,2.73,1.83,4.51ZM553.53,21.87c2.82,0,5.29-1.06,7.4-3.17,2.11-2.12,3.17-4.59,3.17-7.41s-1.06-5.41-3.17-7.48c-2.11-2.07-4.58-3.1-7.4-3.1-3.01,0-5.6,1.04-7.76,3.1-2.16,2.07-3.24,4.56-3.24,7.48s1.08,5.41,3.24,7.48c2.16,2.07,4.75,3.1,7.76,3.1Z"/>
          <path class="cls-1" d="M658.75,105.09h-16.08c-3.2,0-5.57-.89-7.12-2.68-1.55-1.78-2.33-4.14-2.33-7.05,0-1.97.28-3.83.85-5.57.57-1.74,1.22-3.22,1.97-4.44h-2.82c-.94,2.82-2.4,5.64-4.37,8.46-1.97,2.82-4.32,5.13-7.05,6.91-3.95,2.54-8.16,4.26-12.62,5.15-4.47.9-8.96,1.06-13.47.5-3.29-.38-6.4-1.41-9.31-3.1-2.92-1.69-5.24-3.99-6.98-6.91-1.74-2.92-2.61-6.21-2.61-9.87,0-5.64,1.53-10.02,4.59-13.12,3.05-3.1,7.07-5.22,12.06-6.35,2.44-.56,4.94-1.01,7.48-1.34,2.54-.33,4.89-.59,7.05-.77,2.73-.19,5.36-.47,7.9-.85l1.83-.28c3.2-.47,5.45-1.06,6.77-1.76,1.31-.71,1.64-2.09.99-4.16-.38-1.22-1.18-2.21-2.4-2.96-1.22-.75-2.68-1.29-4.37-1.62-1.69-.33-3.62-.49-5.78-.49-3.1,0-5.69.4-7.76,1.2-2.07.8-3.58,1.81-4.51,3.03-.94,1.23-1.41,2.54-1.41,3.95h-21.86c0-4.42,1.25-8.65,3.74-12.7s6.42-7.36,11.78-9.94c5.36-2.59,12.18-3.88,20.45-3.88s14.95,1.29,20.31,3.88c5.36,2.59,9.26,5.88,11.71,9.87,2.44,4,3.67,8.21,3.67,12.62v20.31c0,.94.35,1.76,1.06,2.47.71.71,1.53,1.06,2.47,1.06h6.21v20.45ZM622.5,72.93c-1.98.28-4.37.61-7.19.99-2.63.28-5.27.61-7.9.99-2.26.28-4.35,1.13-6.28,2.54-1.93,1.41-2.89,3.1-2.89,5.08s.78,3.58,2.33,4.8c1.55,1.22,3.46,2.02,5.71,2.4,2.35.19,4.37.19,6.07,0,1.69-.19,3.62-.8,5.78-1.83,2.35-1.13,4.25-2.59,5.71-4.37,1.45-1.78,2.28-3.48,2.47-5.08.09-1.22.14-2.4.14-3.52v-2.82c-.66.28-1.97.56-3.95.84Z"/>
          <path class="cls-1" d="M671.58,81.25v-24.68h-13.54v-20.45h13.54V6.22h22.57v29.9h22.43v20.45h-22.43v24.4c0,.94.35,1.76,1.06,2.47.71.71,1.53,1.06,2.47,1.06h18.9v20.45h-21.44c-5.45,0-9.94-1.15-13.47-3.46-3.52-2.3-6.09-5.27-7.68-8.89-1.6-3.62-2.4-7.4-2.4-11.36Z"/>
          <path class="cls-1" d="M757.2,42.46v62.48h-22.57v-44.85c0-1.04-.33-1.88-.99-2.54-.66-.66-1.5-.99-2.54-.99h-6.77v-20.45h26.52c1.78,0,3.29.61,4.51,1.83s1.83,2.73,1.83,4.51ZM745.21,21.87c2.82,0,5.29-1.06,7.4-3.17,2.11-2.12,3.17-4.59,3.17-7.41s-1.06-5.41-3.17-7.48c-2.11-2.07-4.58-3.1-7.4-3.1-3.01,0-5.6,1.04-7.76,3.1-2.16,2.07-3.24,4.56-3.24,7.48s1.08,5.41,3.24,7.48c2.16,2.07,4.75,3.1,7.76,3.1Z"/>
          <path class="cls-1" d="M814.18,80.41h23.98c-1.69,7.33-5.38,13.54-11.07,18.62-5.69,5.08-13.52,7.62-23.49,7.62-8.18,0-14.95-1.76-20.31-5.29-5.36-3.53-9.29-8.04-11.78-13.54-2.49-5.5-3.74-11.26-3.74-17.28s1.24-11.78,3.74-17.28c2.49-5.5,6.42-10.02,11.78-13.54,5.36-3.53,12.13-5.29,20.31-5.29,6.77,0,12.57,1.25,17.42,3.74,4.84,2.49,8.65,5.74,11.43,9.73,2.77,4,4.67,8.3,5.71,12.9h-23.84c-.85-1.5-2.14-2.87-3.88-4.09-1.74-1.22-4.02-1.83-6.84-1.83-3.01,0-5.5.77-7.48,2.33s-3.43,3.5-4.37,5.85c-.94,2.35-1.41,4.84-1.41,7.48s.47,5.13,1.41,7.48c.94,2.35,2.4,4.3,4.37,5.85,1.97,1.55,4.47,2.33,7.48,2.33,2.82,0,5.08-.59,6.77-1.76,1.69-1.17,2.96-2.51,3.81-4.02Z"/>
        </g>
        <g>
          <path class="cls-1" d="M333.03,146.31c3.81,1.73,6.93,4.34,9.34,7.83,2.41,3.49,3.62,7.73,3.62,12.71s-1.23,9.24-3.68,12.77c-2.45,3.54-5.58,6.17-9.4,7.89-3.81,1.73-7.85,2.59-12.11,2.59h-26.15v37.95h-9.88v-84.34h36.02c4.34,0,8.41.86,12.23,2.59ZM327.85,179.5c2.45-1.12,4.44-2.75,5.96-4.88,1.53-2.13,2.29-4.72,2.29-7.77s-.76-5.64-2.29-7.77c-1.53-2.13-3.52-3.73-5.96-4.82-2.45-1.08-5.12-1.63-8.01-1.63h-25.18v28.55h25.18c2.89,0,5.56-.56,8.01-1.69Z"/>
          <path class="cls-1" d="M412.49,228.06h-7.47c-2.09,0-3.78-.64-5.06-1.93-1.29-1.28-1.93-2.97-1.93-5.06,0-1.69.16-3.39.48-5.12s.72-3.27,1.21-4.64h-1.69c-.96,2.65-2.35,5.24-4.16,7.77-1.81,2.53-3.88,4.56-6.2,6.08-2.81,1.85-5.87,3.09-9.16,3.74-3.29.64-6.79.76-10.48.36-2.73-.32-5.28-1.23-7.65-2.71-2.37-1.48-4.28-3.47-5.72-5.96-1.45-2.49-2.17-5.26-2.17-8.31,0-4.82,1.33-8.55,3.98-11.2,2.65-2.65,5.98-4.46,10-5.42,1.85-.4,3.86-.78,6.03-1.14,2.17-.36,4.22-.66,6.14-.9,3.77-.56,6.47-1,8.07-1.33l1.57-.24c2.49-.64,4.3-1.39,5.42-2.23,1.12-.84,1.48-2.11,1.08-3.79-.4-1.77-1.29-3.41-2.65-4.94-1.37-1.52-3.15-2.75-5.36-3.67-2.21-.92-4.72-1.39-7.53-1.39-3.21,0-6.11.62-8.67,1.87-2.57,1.25-4.54,2.91-5.9,5-1.37,2.09-2.05,4.38-2.05,6.87h-9.64c0-3.85,1.04-7.45,3.13-10.78,2.09-3.33,5.14-6.03,9.16-8.07,4.01-2.05,8.71-3.07,14.1-3.07s10.06,1.02,14.04,3.07c3.97,2.05,7.01,4.84,9.1,8.37,2.09,3.54,3.13,7.43,3.13,11.69v25.9c0,.65.22,1.19.66,1.63.44.44,1.02.66,1.75.66h4.46v8.92ZM391.16,196.25c-2.25.65-5.22,1.37-8.92,2.17-2.73.48-5.82,1-9.27,1.57-3.05.48-5.64,1.67-7.77,3.55-2.13,1.89-3.19,4.36-3.19,7.41,0,2.65.94,4.96,2.83,6.93,1.89,1.97,4.16,3.15,6.81,3.56,2.81.4,5.22.44,7.23.12,2.01-.32,4.34-1.25,6.99-2.77,2.65-1.45,4.74-3.35,6.26-5.72,1.52-2.37,2.57-4.88,3.13-7.53.32-1.93.48-3.89.48-5.9v-5.3c-.81.65-2.33,1.29-4.58,1.93Z"/>
          <path class="cls-1" d="M420.8,183.6c1.85-4.66,4.7-8.45,8.55-11.39,3.85-2.93,8.63-4.4,14.34-4.4s10.02,1.33,13.43,3.97c3.41,2.65,6.04,6.11,7.89,10.36h1.69c-1.12-4.42-1.69-9.11-1.69-14.1v-24.34h9.88v84.34h-9.88v-1.21c0-2.01.16-4.03.48-6.08s.72-3.87,1.21-5.48h-1.69c-.16.32-.44.92-.84,1.8-1.85,3.7-4.44,6.69-7.77,8.98-3.33,2.29-7.65,3.43-12.95,3.43-5.7,0-10.44-1.47-14.22-4.4-3.78-2.93-6.59-6.72-8.43-11.38-1.85-4.66-2.77-9.68-2.77-15.06s.92-10.4,2.77-15.06ZM432.78,214.38c3.25,4.14,7.81,6.2,13.68,6.2s10.42-2.07,13.67-6.2c3.25-4.14,4.88-9.38,4.88-15.72s-1.65-11.58-4.94-15.72c-3.29-4.14-7.83-6.2-13.61-6.2s-10.32,2.05-13.62,6.14c-3.29,4.09-4.94,9.36-4.94,15.78s1.63,11.59,4.88,15.72Z"/>
          <path class="cls-1" d="M497.85,210.41c1.25,3.09,3.25,5.68,6.02,7.77,2.77,2.09,6.32,3.13,10.66,3.13,4.58,0,8.29-1.12,11.14-3.37,2.85-2.25,4.96-5.46,6.32-9.64h9.64c-1.45,5.86-4.34,10.86-8.67,15-4.34,4.14-10.44,6.2-18.31,6.2-6.43,0-11.75-1.51-15.96-4.52-4.22-3.01-7.31-6.88-9.28-11.62-1.97-4.74-2.95-9.68-2.95-14.82s.98-10.04,2.95-14.7c1.97-4.66,5.06-8.49,9.28-11.51,4.22-3.01,9.54-4.52,15.96-4.52s11.67,1.49,15.96,4.46c4.3,2.97,7.45,6.95,9.46,11.93,2.01,4.98,2.89,10.48,2.65,16.51h-46.99c.16,3.37.86,6.61,2.11,9.7ZM504.77,178.66c-2.65,1.77-4.7,4.05-6.14,6.87-1.45,2.81-2.33,5.78-2.65,8.91h37.23c-.24-2.89-1.08-5.74-2.53-8.55-1.45-2.81-3.54-5.16-6.27-7.05-2.73-1.89-6.02-2.83-9.88-2.83s-7.11.88-9.76,2.65Z"/>
          <path class="cls-1" d="M564.53,143.72v84.34h-9.88v-84.34h9.88Z"/>
        </g>
        <g>
          <path class="cls-1" d="M677.05,203.84h7.11l-.12.36c-1.53,4.5-3.76,8.63-6.69,12.41-2.93,3.77-6.81,6.87-11.62,9.27-4.82,2.41-10.52,3.62-17.11,3.62-8.76,0-16-2.15-21.75-6.45-5.74-4.3-9.96-9.78-12.65-16.45-2.69-6.67-4.04-13.61-4.04-20.84s1.35-14.16,4.04-20.78c2.69-6.63,6.93-12.07,12.71-16.32,5.78-4.26,13.01-6.39,21.69-6.39,6.67,0,12.41,1.23,17.23,3.68s8.69,5.58,11.62,9.4c2.93,3.81,5.16,8.01,6.69,12.59h-7.11c-2.25-5.78-5.72-10.48-10.42-14.1-4.7-3.62-10.74-5.42-18.13-5.42s-13.11,1.83-17.89,5.48c-4.78,3.66-8.25,8.31-10.42,13.98-2.17,5.66-3.25,11.59-3.25,17.77s1.08,12.27,3.25,18.01c2.17,5.75,5.64,10.46,10.42,14.16,4.78,3.7,10.74,5.54,17.89,5.54s13.15-1.75,17.77-5.24c4.62-3.49,8.09-8.01,10.42-13.55l.36-.72Z"/>
          <path class="cls-1" d="M703.44,143.72v84.34h-6.75v-84.34h6.75Z"/>
          <path class="cls-1" d="M718.74,203.12v-33.85h6.75v32.65c0,6.11,1.04,11.01,3.13,14.7,2.09,3.69,5.58,6.02,10.48,6.99,3.93.88,7.55.56,10.84-.96,3.29-1.53,5.98-3.98,8.07-7.35,2.09-3.37,3.53-7.39,4.34-12.05.64-4.66.96-9.44.96-14.34v-19.64h6.75v58.79h-6.75v-5.66c0-2.09.18-4.34.54-6.75.36-2.41.78-4.62,1.27-6.63h-1.33c-1.12,4.66-3.01,8.69-5.66,12.11-2.65,3.41-5.96,5.84-9.94,7.29-3.97,1.45-8.29,1.61-12.95.48-3.7-.88-6.79-2.61-9.28-5.18-2.49-2.57-4.32-5.62-5.48-9.16-1.17-3.54-1.75-7.35-1.75-11.45Z"/>
          <path class="cls-1" d="M828.67,172.15c3.81,2.89,6.67,6.67,8.55,11.33,1.89,4.66,2.83,9.72,2.83,15.18s-.92,10.52-2.77,15.18c-1.85,4.66-4.66,8.43-8.43,11.32-3.78,2.89-8.47,4.34-14.1,4.34s-10.48-1.43-14.1-4.28c-3.62-2.85-6.34-6.64-8.19-11.38h-1.33c.96,4.18,1.45,8.39,1.45,12.65v1.57h-6.75v-84.34h6.75v25.9c0,4.82-.48,9.44-1.45,13.85h1.33c.16-.48.48-1.21.96-2.17,2.01-4.09,4.76-7.37,8.25-9.82,3.49-2.45,7.81-3.68,12.95-3.68,5.54,0,10.22,1.45,14.04,4.34ZM828.07,216.37c3.5-4.66,5.24-10.56,5.24-17.71s-1.75-12.95-5.24-17.65c-3.49-4.7-8.53-7.05-15.12-7.05-4.34,0-8.03,1.1-11.08,3.31-3.05,2.21-5.36,5.18-6.93,8.92-1.57,3.73-2.35,7.89-2.35,12.47,0,7.07,1.75,12.95,5.24,17.65,3.5,4.7,8.53,7.05,15.12,7.05s11.63-2.33,15.12-6.99Z"/>
        </g>
      </g>
      <g>
        <path class="cls-2" d="M210.89,206.63c-3.61-.22-10.33-1.15-19.47-4.63-4.38-1.68-9.33-3.95-14.75-7.01-1.94-1.1-3.95-2.29-6.01-3.6-26.46-16.8-54.45-16.8-54.45-16.8,0,0-27.99,0-54.46,16.8-2.07,1.31-4.07,2.51-6.01,3.6-5.43,3.06-10.36,5.33-14.74,7-9.15,3.49-15.86,4.42-19.47,4.64-1.7.1-3.03,1.48-3.03,3.18,0,.84.33,1.61.87,2.19.54.57,1.29.95,2.13.99,5.38.33,17.39.57,30.87-2.2,5.54-1.15,11.34-2.8,17.02-5.17.64-.27,1.28-.53,1.92-.78,22.47-8.85,42.75-7.99,44.74-7.88.12,0,.21,0,.32,0,1.99-.11,22.27-.96,44.74,7.88.64.25,1.28.51,1.92.78,5.68,2.37,11.48,4.02,17.02,5.17,13.48,2.77,25.49,2.52,30.87,2.2,1.69-.1,3-1.5,3-3.18,0-.85-.33-1.62-.88-2.19-.55-.58-1.3-.95-2.15-.99Z"/>
        <path class="cls-2" d="M81.99,225.1s15.3,5.16,35.15,5.26c9.73-.07,19.16-1.37,28.16-3.75,1.55-.45,3.09-.95,4.63-1.51,0,0-31.68-14.5-67.94,0Z"/>
        <circle class="cls-2" cx="117.9" cy="147.43" r="7.97"/>
        <circle class="cls-2" cx="117.9" cy="115.88" r="7.97"/>
        <circle class="cls-2" cx="117.9" cy="84.33" r="7.97"/>
        <circle class="cls-2" cx="117.9" cy="52.78" r="7.97"/>
        <circle class="cls-2" cx="157.1" cy="147.43" r="7.97"/>
        <circle class="cls-2" cx="157.1" cy="115.88" r="7.97"/>
        <circle class="cls-2" cx="157.1" cy="84.33" r="7.97"/>
        <circle class="cls-2" cx="196.3" cy="115.88" r="7.97"/>
        <circle class="cls-2" cx="196.3" cy="84.33" r="7.97"/>
        <circle class="cls-2" cx="157.1" cy="52.78" r="7.97"/>
        <circle class="cls-2" cx="78.71" cy="147.43" r="7.97"/>
        <circle class="cls-2" cx="78.71" cy="115.88" r="7.97"/>
        <circle class="cls-2" cx="78.71" cy="84.33" r="7.97"/>
        <circle class="cls-2" cx="39.51" cy="115.88" r="7.97"/>
        <circle class="cls-2" cx="39.51" cy="84.33" r="7.97"/>
        <circle class="cls-2" cx="78.71" cy="52.78" r="7.97"/>
        <path class="cls-2" d="M219.79,27.14S200.84,4.34,159.42,1.45c-13.79-.96-27.61-1.45-41.43-1.45s-27.63.49-41.42,1.45C35.15,4.34,16.2,27.14,16.2,27.14c0,0-17.98,20.87-16.06,65.18,1.93,44.32,13.17,71.61,17.34,80.28.63,1.31,1.75,3.37,3.27,6,1.72-.21,5.22-.85,10.26-2.77,2.01-.77,4.09-1.68,6.21-2.72-2.14-3.58-3.68-6.34-4.42-7.88-3.22-6.68-13.85-31.73-15.67-73.64-1.5-34.46,10.42-51.33,11.98-53.38l.1-.13c1.39-1.53,16.52-17.44,48.54-19.67,13.34-.93,26.88-1.41,40.24-1.41s26.91.48,40.25,1.41c30.41,2.11,45.59,16.58,48.22,19.33l.37.4c1.33,1.73,13.55,18.59,12.03,53.45-1.82,41.91-12.46,66.96-15.67,73.64-.83,1.72-2.67,4.98-5.21,9.19,1.17.52,2.33,1,3.47,1.44,6.14,2.34,10.02,2.75,11.12,2.82.83.05,1.66.13,2.48.25,1.61-2.78,2.8-4.97,3.45-6.33,4.18-8.67,15.42-35.96,17.34-80.28,1.93-44.31-16.05-65.18-16.05-65.18Z"/>
      </g>
    </g>
  </g>
</svg>